<svg width="512" height="512" viewBox="0 0 512 512" fill="none" xmlns="http://www.w3.org/2000/svg">
<rect width="512" height="512" fill="black"/>
<path d="M79.0855 462V296.4H110.366V432.79H181.666V462H79.0855ZM201.219 462V296.4H271.139C272.749 296.4 274.896 296.477 277.579 296.63C280.339 296.707 282.792 296.937 284.939 297.32C294.829 298.853 302.917 302.112 309.204 307.095C315.567 312.078 320.244 318.365 323.234 325.955C326.224 333.468 327.719 341.863 327.719 351.14C327.719 360.417 326.186 368.85 323.119 376.44C320.129 383.953 315.452 390.202 309.089 395.185C302.802 400.168 294.752 403.427 284.939 404.96C282.792 405.267 280.339 405.497 277.579 405.65C274.819 405.803 272.672 405.88 271.139 405.88H232.499V462H201.219ZM232.499 376.67H269.759C271.369 376.67 273.132 376.593 275.049 376.44C276.966 376.287 278.729 375.98 280.339 375.52C284.556 374.37 287.814 372.453 290.114 369.77C292.414 367.01 293.986 363.982 294.829 360.685C295.749 357.312 296.209 354.13 296.209 351.14C296.209 348.15 295.749 345.007 294.829 341.71C293.986 338.337 292.414 335.308 290.114 332.625C287.814 329.865 284.556 327.91 280.339 326.76C278.729 326.3 276.966 325.993 275.049 325.84C273.132 325.687 271.369 325.61 269.759 325.61H232.499V376.67ZM350.809 462V296.4H404.399C405.702 296.4 408.386 296.438 412.449 296.515C416.512 296.592 420.422 296.86 424.179 297.32C437.519 298.93 448.827 303.568 458.104 311.235C467.381 318.902 474.434 328.638 479.264 340.445C484.094 352.252 486.509 365.17 486.509 379.2C486.509 393.23 484.094 406.148 479.264 417.955C474.434 429.762 467.381 439.498 458.104 447.165C448.827 454.832 437.519 459.47 424.179 461.08C420.422 461.54 416.512 461.808 412.449 461.885C408.386 461.962 405.702 462 404.399 462H350.809ZM382.549 432.56H404.399C406.469 432.56 409.267 432.522 412.794 432.445C416.321 432.292 419.502 431.947 422.339 431.41C429.546 429.953 435.411 426.58 439.934 421.29C444.534 416 447.907 409.637 450.054 402.2C452.277 394.763 453.389 387.097 453.389 379.2C453.389 370.92 452.239 363.062 449.939 355.625C447.716 348.188 444.304 341.902 439.704 336.765C435.104 331.628 429.316 328.37 422.339 326.99C419.502 326.377 416.321 326.032 412.794 325.955C409.267 325.878 406.469 325.84 404.399 325.84H382.549V432.56Z" fill="white"/>
</svg>
